{"title":"Piranha.2010.R5.Line.XviD-SKILA","uid":5868677,"size":1305943278,"categoryP":"video","categoryS":"movies","magnet":"?xt=urn:btih:2be375306c239dd2792ce95f3b237084eae7994e&amp;dn=Piranha.2010.R5.Line.XviD-SKILA&amp;tr=udp%3A%2F%2Ftracker.openbittorrent.com%3A80&amp;tr=udp%3A%2F%2Fopen.demonii.com%3A1337&amp;tr=udp%3A%2F%2Ftracker.coppersurfer.tk%3A6969&amp;tr=udp%3A%2F%2Fexodus.desync.com%3A6969","seeders":0,"leechers":1,"uploader":"razvanripper","files":1,"time":1286307767,"description":"ENGLISH LANGUAGE REALEASE ENJOY AND SEDDDDDDDDDDDDDDD AND LEAVE A COMMENT ABOUT THE QUALITY THANKS\n\nFormat                           : AVI - http://www.imdb.com/title/tt0464154/\nFormat/Info                      : Audio Video Interleave\nFile size                        : 1.22 GiB\nSource                          : RELIZLAB\nOverall bit rate                 : 2 052 Kbps\nWriting application              : VirtualDubMod 1.5.10.2 (build 2540/release)\nWriting library                  : VirtualDub build 32839/release\n\nVideo\nFormat                           : MPEG-4 Visual\nFormat profile                   : Streaming Video@L1\nFormat settings, BVOP            : Yes\nFormat settings, QPel            : No\nFormat settings, GMC             : No warppoints\nFormat settings, Matrix          : Default (H.263)\nMuxing mode                      : Packed bitstream\nCodec ID                         : XVID\nCodec ID/Hint                    : XviD\nDuration                         : 1h 24mn\nBit rate                         : 1 850 Kbps\nWidth                            : 720 pixels\nHeight                           : 304 pixels\nDisplay aspect ratio             : 2.35\nFrame rate                       : 25.000 fps\nResolution                       : 24 bits\nColorimetry                      : 4:2:0\nScan type                        : Progressive\nBits/(Pixel*Frame)               : 0.338\nStream size                      : 1.10 GiB (90%)\nWriting library                  : XviD 1.2.1 (UTC 2008-12-04)\n\nAudio\nFormat                           : MPEG Audio\nFormat version                   : Version 1\nFormat profile                   : Layer 3\nCodec ID                         : 55\nCodec ID/Hint                    : MP3\nDuration                         : 1h 24mn\nBit rate mode                    : Constant\nBit rate                         : 192 Kbps\nChannel(s)                       : 2 channels\nSampling rate                    : 48.0 KHz\nResolution                       : 16 bits\nStream size                      : 117 MiB (9%)\nAlignment                        : Split accross interleaves\nInterleave, duration             : 40 ms (1.00 video frame)\nInterleave, preload duration     : 500 ms\nWriting library                  : LAME3.97\n\n\n\nTHIS TORRENT WAS BROUGHT TO YOU BY RAZVANRIPPER ENJOY AND SEEEEEEEEED AS LONG AS POSSIBILE","torrent":{"xt":"urn:btih:2be375306c239dd2792ce95f3b237084eae7994e","amp;dn":"Piranha.2010.R5.Line.XviD-SKILA","amp;tr":["udp%3A%2F%2Ftracker.openbittorrent.com%3A80","udp%3A%2F%2Fopen.demonii.com%3A1337","udp%3A%2F%2Ftracker.coppersurfer.tk%3A6969","udp%3A%2F%2Fexodus.desync.com%3A6969"],"infoHash":"2be375306c239dd2792ce95f3b237084eae7994e","infoHashBuffer":{"type":"Buffer","data":[43,227,117,48,108,35,157,210,121,44,233,95,59,35,112,132,234,231,153,78]},"announce":[],"urlList":[]}}